# xmcd CD database file
#
# Track frame offsets:
#	150
#	17437
#	38902
#
# Disc length: 847 seconds
#
# Revision: 1
# Processed by: cddbd v1.5.1PL0 Copyright (c) Steve Scherf et al.
# Submitted via: CD2WAV32(JP) R3.22
#
DISCID=17034d03
DTITLE=浜田麻里 - Ash And Blue
DYEAR=2003
DGENRE=Rock
TTITLE0=Ash And Blue
TTITLE1=Necessary Condition
TTITLE2=Stardust
EXTD=
EXTT0=
EXTT1=
EXTT2=
PLAYORDER=
